<svg width="756" height="756" xmlns="http://www.w3.org/2000/svg" xmlns:xlink="http://www.w3.org/1999/xlink" overflow="hidden"><g><rect x="0" y="0" width="756" height="756" fill="#FFFFFF"/><path d="M34.5 375.5C34.5 181.096 190.753 23.5 383.5 23.5 576.247 23.5 732.5 181.096 732.5 375.5 732.5 569.904 576.247 727.5 383.5 727.5 190.753 727.5 34.5 569.904 34.5 375.5Z" stroke="#000000" stroke-width="27.006" stroke-miterlimit="8" fill="#FFFFFF" fill-rule="evenodd"/><path d="M78 372.5C78 201.016 214.777 62 383.5 62 552.223 62 689 201.016 689 372.5 689 543.984 552.223 683 383.5 683 214.777 683 78 543.984 78 372.5Z" stroke="#042433" stroke-width="2.00044" stroke-miterlimit="8" fill-rule="evenodd"/><path d="M552.207 88.617 623.536 146.754 210.692 653.278 139.363 595.141Z" fill="#FFFFFF" fill-rule="evenodd"/></g></svg>